<?xml version="1.0" encoding="UTF-8"?>
<svg id="Layer_1" xmlns="http://www.w3.org/2000/svg" version="1.1" viewBox="0 0 546.3 491.9">
  <!-- Generator: Adobe Illustrator 29.3.1, SVG Export Plug-In . SVG Version: 2.1.0 Build 151)  -->
  <path d="M98.3,265.8v2.2c0,17.7,14.3,32,32,32h306.7l-73.4-73.3c-12.7-12.7-12.5-33.5.7-45.9,12.7-12,32.8-11.2,45.1,1.1l127.5,127.5c12.5,12.5,12.5,32.8,0,45.3l-127.5,127.5c-12.3,12.3-32.4,13.1-45.1,1.1-13.2-12.4-13.4-33.2-.7-45.9l73.4-73.4H130.3c-53,0-96-43-96-96v-2.2c0-5.5,4.5-10,10-10h44c5.5,0,10,4.5,10,10h0Z"/>
  <path d="M27.2,146.6l30.7-30.7-30.7-30.7C13.6,71.6,0,53.1,0,33.9v-13.9C0,9,9,0,20,0h133.8C164.9,0,173.8,9,173.8,20v13.9c0,19.2-13.6,37.6-27.2,51.2l-30.7,30.7,30.7,30.7c13.6,13.6,27.2,32,27.2,51.2v13.9c0,11-9,20-20,20H20C9,231.8,0,222.8,0,211.8v-13.9C0,178.6,13.6,160.2,27.2,146.6h0ZM117.6,64.7c8.1-8.1,12.7-19.2,12.7-30.7v-5H43.5v5c0,11.5,4.6,22.6,12.7,30.7l30.7,30.7,30.7-30.7h0Z"/>
</svg>