<?xml version="1.0" encoding="UTF-8"?>
<svg id="Layer_1" xmlns="http://www.w3.org/2000/svg" version="1.1" viewBox="0 0 512 352.1">
  <!-- Generator: Adobe Illustrator 29.3.1, SVG Export Plug-In . SVG Version: 2.1.0 Build 151)  -->
  <path d="M64,32C64,14.3,49.7,0,32,0S0,14.3,0,32v96c0,53,43,96,96,96h306.7l-73.4,73.4c-12.5,12.5-12.5,32.8,0,45.3s32.8,12.5,45.3,0l128-128c12.5-12.5,12.5-32.8,0-45.3l-128-128c-12.5-12.5-32.8-12.5-45.3,0s-12.5,32.8,0,45.3l73.4,73.3H96c-17.7,0-32-14.3-32-32V32Z"/>
</svg>