<?xml version="1.0" encoding="UTF-8"?>
<svg id="Layer_1" xmlns="http://www.w3.org/2000/svg" version="1.1" viewBox="0 0 640 640">
  <!-- Generator: Adobe Illustrator 29.5.0, SVG Export Plug-In . SVG Version: 2.1.0 Build 137)  -->
  <g display="none">
    <g>
      <path d="M251.8,428.9c14.4,0,26.8,2.8,37.1,8.5,10.3,5.7,18.2,13.8,23.7,24.5,5.5,10.6,8.3,23.5,8.3,38.4s-2.8,27.8-8.3,38.4c-5.5,10.6-13.4,18.8-23.7,24.5-10.3,5.7-22.6,8.5-37.1,8.5s-26.6-2.8-37.1-8.5c-10.4-5.7-18.4-13.8-24-24.5-5.6-10.6-8.4-23.4-8.4-38.4s2.8-27.8,8.4-38.4c5.6-10.6,13.6-18.8,24-24.5,10.4-5.7,22.8-8.5,37.1-8.5ZM251.8,461.7c-5.7,0-10.5,1.4-14.2,4.3-3.7,2.9-6.5,7.1-8.4,12.7-1.9,5.6-2.8,12.8-2.8,21.6s.9,15.9,2.8,21.5c1.9,5.7,4.7,9.9,8.4,12.8,3.7,2.9,8.4,4.3,14.2,4.3s10.3-1.4,14.1-4.3c3.8-2.9,6.6-7.1,8.4-12.8,1.8-5.7,2.7-12.8,2.7-21.5s-.9-16-2.7-21.6c-1.8-5.6-4.6-9.8-8.4-12.7-3.8-2.9-8.5-4.3-14.1-4.3Z" fill="none" stroke="#fff" stroke-miterlimit="10" stroke-width="55"/>
      <path d="M392.1,428.9c13.2,0,24.8,1.8,35.1,5.4,10.2,3.6,19.2,9,26.9,16.3l-18.7,27.5c-6.3-5.3-13-9.5-20.1-12.5-7.1-3-14.9-4.5-23.4-4.5s-7.8.4-10.5,1.3c-2.7.8-4.6,2-5.8,3.5-1.2,1.5-1.8,3.1-1.8,4.9s1.4,4.1,4.1,5.5c2.7,1.4,6.5,2.7,11.4,3.8l21,4.8c14,3.2,24.4,7.9,31.3,14.2,6.9,6.2,10.3,14.7,10.3,25.5s-2.6,19.3-7.9,26.2c-5.2,7-12.4,12.3-21.5,15.8-9.1,3.5-19.4,5.2-30.9,5.2s-18-.9-26.6-2.7c-8.6-1.8-16.5-4.4-23.6-7.9-7.1-3.4-13.3-7.5-18.5-12.3l18.5-28.3c3.8,3.6,8.4,6.9,13.9,9.8,5.5,2.9,11.3,5.1,17.4,6.8,6.2,1.7,12.1,2.5,17.8,2.5s7.4-.4,10-1.2c2.6-.8,4.4-1.9,5.6-3.3,1.1-1.4,1.7-3.1,1.7-5s-.9-4.3-2.7-5.8c-1.8-1.5-5.2-2.8-10.3-3.9l-23.1-5.2c-7.6-1.7-14.6-4-21-6.9-6.4-2.9-11.6-7-15.4-12.3-3.9-5.2-5.8-12.1-5.8-20.7s2.4-17.1,7.4-24.2c4.9-7,12-12.5,21.4-16.4,9.4-3.9,20.6-5.9,33.8-5.9Z" fill="none" stroke="#fff" stroke-miterlimit="10" stroke-width="55"/>
      <path d="M591.8,528.4c-2.5,10.2-6.8,18.6-12.7,25-6,6.4-13.2,11.1-21.6,14-8.5,2.9-17.8,4.3-28,4.3s-26.6-2.8-37.1-8.5c-10.4-5.7-18.4-13.8-24-24.5-5.6-10.6-8.4-23.4-8.4-38.4s2.8-27.8,8.4-38.4c5.6-10.6,13.6-18.8,24-24.5,10.4-5.7,22.7-8.5,36.9-8.5s19.4,1.4,27.8,4.2c8.5,2.8,15.6,7.1,21.5,13,5.9,5.9,9.9,13.5,12,22.9l-37.2,14.9c-1.5-9-4.2-14.9-8.1-17.9-3.9-2.9-8.8-4.4-14.8-4.4s-10.4,1.4-14.4,4.3c-4,2.9-7,7.1-9,12.8-2,5.7-3,12.8-3,21.5s.9,15.7,2.8,21.4c1.9,5.7,4.8,10,8.8,12.9,4,2.9,9.2,4.3,15.6,4.3s10.6-1.7,14.5-5c3.9-3.4,6.5-8.6,7.8-15.8l38.2,10.3Z" fill="none" stroke="#fff" stroke-miterlimit="10" stroke-width="55"/>
    </g>
  </g>
  <g display="none">
    <g>
      <path d="M252.2,428.9c14,0,26.1,2.8,36.2,8.5,10.1,5.7,18,13.8,23.4,24.5,5.5,10.6,8.2,23.5,8.2,38.4s-2.7,27.8-8.2,38.4c-5.5,10.6-13.3,18.8-23.4,24.5-10.2,5.7-22.2,8.5-36.2,8.5s-26.1-2.8-36.3-8.5c-10.2-5.7-18.1-13.8-23.5-24.5-5.5-10.6-8.2-23.4-8.2-38.4s2.7-27.8,8.2-38.4c5.5-10.6,13.3-18.8,23.5-24.5,10.2-5.7,22.3-8.5,36.3-8.5ZM252.2,457.2c-6.7,0-12.4,1.6-17,4.8-4.6,3.2-8.1,8-10.5,14.4-2.4,6.4-3.6,14.3-3.6,23.8s1.2,17.3,3.6,23.7c2.4,6.4,5.9,11.3,10.5,14.5,4.6,3.2,10.3,4.8,17,4.8s12.4-1.6,16.9-4.8c4.5-3.2,8-8,10.4-14.5,2.4-6.4,3.6-14.3,3.6-23.7s-1.2-17.5-3.6-23.8c-2.4-6.4-5.8-11.2-10.4-14.4-4.6-3.2-10.2-4.8-16.9-4.8Z"/>
      <path d="M392.5,428.9c12.9,0,24.3,2,34.1,6s18.4,9.8,25.7,17.5l-17.4,23.3c-6-6.3-12.5-11-19.4-14.2s-14.8-4.7-23.6-4.7-9.4.6-12.6,1.7c-3.2,1.1-5.5,2.7-6.9,4.6-1.4,2-2.1,4.2-2.1,6.7s1.4,5.4,4.1,7.5c2.7,2,7.2,3.7,13.3,5.1l23.3,5.2c13.9,3.2,24,7.9,30.5,14.1,6.4,6.2,9.7,14.4,9.7,24.6s-2.5,18.1-7.6,24.9c-5,6.8-12,11.9-20.8,15.3s-18.9,5.1-30.2,5.1-18.1-1-26.5-3c-8.4-2-16-4.9-22.7-8.7s-12.4-8.1-17-13l17.4-24.2c3.5,4.1,7.8,7.7,12.9,10.8,5.1,3.1,10.7,5.6,16.8,7.5,6.1,1.8,12.3,2.7,18.6,2.7s9-.5,12.3-1.5c3.3-1,5.7-2.4,7.2-4.4,1.5-2,2.3-4.3,2.3-6.9s-1-5.4-3.1-7.5c-2.1-2-6.1-3.7-12-5.1l-25.6-5.7c-7.8-1.8-14.8-4.2-20.9-7.2-6.1-3-10.9-7.1-14.4-12.2-3.5-5.1-5.2-11.5-5.2-19.2s2.4-16.4,7.1-23.2c4.8-6.8,11.6-12.1,20.6-16.1,9-3.9,19.7-5.9,32.1-5.9Z"/>
      <path d="M591.4,529.9c-2.7,9.7-6.9,17.6-12.8,23.8-5.9,6.2-12.9,10.8-21,13.7-8.1,2.9-17.1,4.3-26.9,4.3-14,0-26.1-2.8-36.3-8.5-10.2-5.7-18.1-13.8-23.5-24.5-5.5-10.6-8.2-23.4-8.2-38.4s2.7-27.8,8.2-38.4c5.5-10.6,13.3-18.8,23.5-24.5,10.2-5.7,22.3-8.5,36.1-8.5s18.5,1.4,26.7,4.1c8.1,2.7,15,6.9,20.6,12.5,5.6,5.6,9.6,12.8,12,21.6l-31.7,12.8c-2-8.7-5.1-14.6-9.6-17.8-4.4-3.2-10-4.8-16.7-4.8s-12.3,1.6-17.1,4.8c-4.8,3.2-8.5,8-11.1,14.4-2.6,6.4-3.9,14.3-3.9,23.8s1.2,17.3,3.6,23.7c2.4,6.4,6,11.3,10.8,14.5,4.8,3.2,10.8,4.8,18,4.8s12.4-1.9,17.1-5.6c4.7-3.7,7.9-9.4,9.6-17.1l32.8,9.2Z"/>
    </g>
  </g>
  <path d="M343.9,412.2c-8.6,4.5-15.9,10.1-21.9,16.8-5.8-6.2-12.6-11.4-20.2-15.6-1.9-1.1-3.9-2.1-6-3v-39.8c-18.9-9-32-28.3-32-50.6s0-2.9.2-4.3l-80.1-45.8c-2.5,1.8-5.2,3.4-8,4.7v90.8c2.8,1.4,5.4,2.9,8,4.7l50.5-29c3.9,16.1,12.3,30.5,23.8,41.7l-43.7,25c-4.2,1.6-8.2,3.4-12,5.5-15,8.3-26.7,20.4-34.6,36-3.5,6.8-6.2,14.2-8,22.1-21.9,3.1-44.6-7.1-56.4-27.5-15.5-26.8-6.3-61,20.5-76.5,1.3-.8,2.7-1.5,4-2.1v-90.8c-1.4-.6-2.7-1.3-4-2.1-26.8-15.5-36-49.7-20.5-76.5s49.7-36,76.5-20.5c19.3,11.2,29.5,32,27.9,52.8l80.1,45.8c2.5-1.8,5.2-3.4,8-4.7v-98.8c-18.9-9-32-28.3-32-50.6s25.1-56,56-56,56,25.1,56,56-13.1,41.5-31.9,50.6v98.7c18.9,9,32,28.3,32,50.6s-.1,2.9-.2,4.3l80.1,45.8c2.5-1.7,5.2-3.3,8-4.6v-90.8c-2.8-1.4-5.4-2.9-8-4.7l-50.6,29c-3.9-16.1-12.3-30.5-23.8-41.7l50.6-28.9c-1.6-20.8,8.5-41.7,27.8-52.8,26.8-15.5,60.8-6.3,76.3,20.5s6.3,61-20.5,76.5c-1.3.8-2.6,1.5-4,2.1v90.8c1.3.6,2.7,1.3,4,2.1,13.5,7.8,22.6,20.4,26.2,34.5-3.8-.4-7.6-.6-11.6-.6-18.5,0-35.2,4-49.5,12-6.2,3.5-11.9,7.6-17,12.3-8.1-6.8-17.2-12.3-27.1-16.3-5.9-2.4-12.1-4.2-18.7-5.5l-66.4-38c-2.5,1.8-5.2,3.4-8,4.7v41.6ZM317.6,575.9c0,0,.1,0,.2,0,0,0,0,0,0,0,0,0,0,0,0,0ZM311.9,461.9c5.5,10.6,8.2,23.5,8.2,38.4s-2.7,27.8-8.2,38.4c-5.5,10.6-13.3,18.8-23.4,24.5-10.2,5.7-22.2,8.5-36.2,8.5s-26.1-2.8-36.3-8.5c-10.2-5.7-18.1-13.8-23.5-24.5-5.5-10.6-8.2-23.4-8.2-38.4s2.7-27.8,8.2-38.4c5.5-10.6,13.3-18.8,23.5-24.5,10.2-5.7,22.3-8.5,36.3-8.5s26.1,2.8,36.2,8.5c10.1,5.7,18,13.8,23.4,24.5ZM283.1,500.3c0-9.5-1.2-17.5-3.6-23.8-2.4-6.4-5.8-11.2-10.4-14.4-4.6-3.2-10.2-4.8-16.9-4.8s-12.4,1.6-17,4.8c-4.6,3.2-8.1,8-10.5,14.4-2.4,6.4-3.6,14.3-3.6,23.8s1.2,17.3,3.6,23.7c2.4,6.4,5.9,11.3,10.5,14.5,4.6,3.2,10.3,4.8,17,4.8s12.4-1.6,16.9-4.8c4.5-3.2,8-8,10.4-14.5,2.4-6.4,3.6-14.3,3.6-23.7ZM379.3,458.5c3.2-1.1,7.4-1.7,12.6-1.7,8.8,0,16.7,1.6,23.6,4.7s13.4,7.9,19.4,14.2l17.4-23.3c-7.3-7.7-15.9-13.5-25.7-17.5s-21.2-6-34.1-6-23.2,2-32.1,5.9c-9,3.9-15.8,9.3-20.6,16.1-4.8,6.8-7.1,14.5-7.1,23.2s1.7,14.1,5.2,19.2c3.5,5.1,8.3,9.2,14.4,12.2,6.1,3,13.1,5.4,20.9,7.2l25.6,5.7c5.9,1.4,9.9,3.1,12,5.1,2.1,2,3.1,4.5,3.1,7.5s-.8,5-2.3,6.9c-1.5,2-4,3.4-7.2,4.4-3.3,1-7.4,1.5-12.3,1.5s-12.5-.9-18.6-2.7c-6.1-1.8-11.7-4.3-16.8-7.5-5.1-3.2-9.4-6.8-12.9-10.8l-17.4,24.2c4.6,4.9,10.3,9.2,17,13s14.3,6.7,22.7,8.7c8.4,2,17.2,3,26.5,3s21.4-1.7,30.2-5.1,15.8-8.5,20.8-15.3c5-6.8,7.6-15.1,7.6-24.9s-3.2-18.4-9.7-24.6c-6.4-6.2-16.6-10.8-30.5-14.1l-23.3-5.2c-6.2-1.4-10.6-3.1-13.3-5.1-2.7-2-4.1-4.5-4.1-7.5s.7-4.8,2.1-6.7c1.4-2,3.7-3.5,6.9-4.6ZM558.6,520.7c-1.7,7.7-4.9,13.4-9.6,17.1-4.7,3.7-10.4,5.6-17.1,5.6s-13.1-1.6-18-4.8c-4.8-3.2-8.4-8-10.8-14.5-2.4-6.4-3.6-14.3-3.6-23.7s1.3-17.5,3.9-23.8c2.6-6.4,6.3-11.2,11.1-14.4,4.8-3.2,10.5-4.8,17.1-4.8s12.3,1.6,16.7,4.8c4.4,3.2,7.6,9.2,9.6,17.8l31.7-12.8c-2.4-8.8-6.4-16-12-21.6-5.6-5.6-12.5-9.8-20.6-12.5-8.1-2.7-17-4.1-26.7-4.1-13.9,0-25.9,2.8-36.1,8.5-10.2,5.7-18.1,13.8-23.5,24.5-5.5,10.6-8.2,23.5-8.2,38.4s2.7,27.8,8.2,38.4c5.5,10.6,13.3,18.8,23.5,24.5,10.2,5.7,22.3,8.5,36.3,8.5s18.8-1.4,26.9-4.3c8.1-2.9,15.1-7.4,21-13.7,5.9-6.2,10.1-14.2,12.8-23.8l-32.8-9.2Z"/>
</svg>