<?xml version="1.0" encoding="UTF-8"?><svg id="Logo_Small" xmlns="http://www.w3.org/2000/svg" viewBox="0 0 512 512"><defs><style>.cls-1{fill:#24aa2a;}.cls-2{fill:#152519;}.cls-3{fill:#7ee6ad;}</style></defs><circle class="cls-2" cx="256" cy="256" r="240"/><path class="cls-3" d="M256.5,85.9998c33.6641,0,62.75,6.75,87.25,20.25s43.25,32.9219,56.25,58.25c13,25.3359,19.5,55.8359,19.5,91.5s-6.5,66.1724-19.5,91.5005c-13,25.3359-31.75,44.75-56.25,58.25s-53.5859,20.25-87.25,20.25-62.75-6.75-87.25-20.25-43.4219-32.9141-56.75-58.25c-13.3359-25.3281-20-55.8281-20-91.5005s6.6641-66.1641,20-91.5c13.3281-25.3281,32.25-44.75,56.75-58.25s53.5781-20.25,87.25-20.25ZM256.5,158.9998c-14.6719,0-27,3.5859-37,10.75-10,7.1719-17.5859,17.9219-22.75,32.25-5.1719,14.3359-7.75,32.3359-7.75,54s2.5781,39.6724,7.75,54.0005c5.1641,14.3359,12.75,25.0859,22.75,32.25,10,7.1719,22.3281,10.75,37,10.75,14.6641,0,26.9141-3.5781,36.75-10.75,9.8281-7.1641,17.25-17.9141,22.25-32.25,5-14.3281,7.5-32.3281,7.5-54.0005s-2.5-39.6641-7.5-54c-5-14.3281-12.4219-25.0781-22.25-32.25-9.8359-7.1641-22.0859-10.75-36.75-10.75Z"/><path class="cls-1" d="M280.4941,487.7617c-16.7969,0-30.4629-13.665-30.4629-30.4619v-183.2119c0-16.7969,13.666-30.4624,30.4629-30.4624,5.3066,0,10.5625,1.4146,15.2002,4.0903l158.7822,91.6055c9.3955,5.4199,15.2324,15.5254,15.2324,26.373s-5.8369,20.9521-15.2324,26.3721l-158.7832,91.6055c-4.6377,2.6758-9.8936,4.0898-15.1982,4.0898h-.001Z"/><path class="cls-2" d="M280.4942,263.6255c1.7382,0,3.5223.4429,5.2048,1.4135l158.7833,91.6056c6.9684,4.0204,6.9684,14.0779,0,18.0983l-158.7833,91.6056c-1.6829.9709-3.4662,1.4135-5.2048,1.4135-5.4565,0-10.4629-4.3648-10.4629-10.4626v-183.2115c0-6.0982,5.0059-10.4626,10.4629-10.4626M280.4942,223.6255c-27.8254,0-50.4629,22.6374-50.4629,50.4625v183.2115c0,27.8251,22.6375,50.4625,50.4629,50.4625,8.8093,0,17.521-2.3396,25.1934-6.766l158.7835-91.6057c15.5673-8.9813,25.2375-25.7246,25.2375-43.6965s-9.6703-34.7152-25.2372-43.6964l-158.7836-91.6057c-7.673-4.4266-16.3846-6.7661-25.1937-6.7661h0Z"/></svg>