<?xml version="1.0" encoding="UTF-8"?><svg id="Layer_1" xmlns="http://www.w3.org/2000/svg" viewBox="0 0 480 480"><defs><style>.cls-1{fill:#24aa2a;}.cls-2{fill:#152519;}.cls-3{fill:#7ee6ad;}</style></defs><circle class="cls-2" cx="240" cy="240" r="240"/><path class="cls-3" d="M240.5,69.9998c33.6641,0,62.75,6.75,87.25,20.25s43.25,32.9219,56.25,58.25c13,25.3359,19.5,55.8359,19.5,91.5s-6.5,66.1724-19.5,91.5005c-13,25.3359-31.75,44.75-56.25,58.25s-53.5859,20.25-87.25,20.25-62.75-6.75-87.25-20.25-43.4219-32.9141-56.75-58.25c-13.3359-25.3281-20-55.8281-20-91.5005s6.6641-66.1641,20-91.5c13.3281-25.3281,32.25-44.75,56.75-58.25s53.5781-20.25,87.25-20.25ZM240.5,142.9998c-14.6719,0-27,3.5859-37,10.75-10,7.1719-17.5859,17.9219-22.75,32.25-5.1719,14.3359-7.75,32.3359-7.75,54s2.5781,39.6724,7.75,54.0005c5.1641,14.3359,12.75,25.0859,22.75,32.25,10,7.1719,22.3281,10.75,37,10.75,14.6641,0,26.9141-3.5781,36.75-10.75,9.8281-7.1641,17.25-17.9141,22.25-32.25,5-14.3281,7.5-32.3281,7.5-54.0005s-2.5-39.6641-7.5-54c-5-14.3281-12.4219-25.0781-22.25-32.25-9.8359-7.1641-22.0859-10.75-36.75-10.75Z"/><path class="cls-1" d="M272.1807,464.0884c-12.1387-.001-22.0137-9.877-22.0137-22.0146v-175.3721c0-12.1387,9.876-22.0146,22.0156-22.0146,3.8271,0,7.623,1.0225,10.9775,2.958l151.9902,87.6865c6.8906,3.9746,11.0059,11.0986,11.0059,19.0547.001,7.957-4.1143,15.0811-11.0059,19.0576l-151.9893,87.6855c-3.3545,1.9355-7.1514,2.959-10.9785,2.959h-.002Z"/><path class="cls-2" d="M272.1824,256.6868c1.6638,0,3.3716.4239,4.9821,1.3531l151.9889,87.6859c6.6703,3.8483,6.6703,13.4754,0,17.3237l-151.9889,87.6859c-1.6109.9294-3.3179,1.3531-4.9821,1.3531-5.223,0-10.0152-4.1781-10.0152-10.0149v-175.3718c0-5.8373,4.7917-10.0149,10.0152-10.0149M272.1824,232.6867c-18.756,0-34.0152,15.259-34.0152,34.0149v175.3718c0,18.7559,15.2592,34.0149,34.0152,34.0149,5.9296,0,11.7997-1.5785,16.9758-4.5648l151.9885-87.6857c10.4918-6.0529,17.0094-17.3376,17.0094-29.4503s-6.5177-23.3973-17.0094-29.4503l-151.9889-87.6858c-5.1758-2.9862-11.0459-4.5647-16.9754-4.5647h0Z"/></svg>